Coordinates
version=1
nRows=35
nColumns=24
inDegrees=yes

Units are S.I. units (second, meters, Newtons, ...)
If the header above contains a line with 'inDegrees', this indicates whether rotational values are in degrees (yes) or radians (no).

endheader
time	pelvis_tilt	pelvis_list	pelvis_rotation	pelvis_tx	pelvis_ty	pelvis_tz	hip_flexion_r	hip_adduction_r	hip_rotation_r	knee_angle_r	ankle_angle_r	subtalar_angle_r	mtp_angle_r	hip_flexion_l	hip_adduction_l	hip_rotation_l	knee_angle_l	ankle_angle_l	subtalar_angle_l	mtp_angle_l	lumbar_extension	lumbar_bending	lumbar_rotation
1.0	4.86109968	-0.02349664	0.29652518	0.59297332	1.04454135	0.04550281	-2.68736629	1.87114204	-3.73778738	-11.65874963	7.96901249	-1.16e-06	0.0	18.76738471	-3.05135978	-4.13408244	-57.77468217	1.41913418	-1.31e-06	0.0	-16.41453002	1.07648891	1.15045435
1.017	4.9266141	-0.03186576	0.04776591	0.59107577	1.04448939	0.04658624	-4.17362573	1.97312804	-3.53682865	-10.90646262	8.37454563	-1.14e-06	0.0	19.43898741	-3.05286448	-4.54526057	-53.50466425	1.66298601	-2.43e-06	0.0	-16.56670087	0.9262506	1.51260071
1.033	4.94917895	-0.24589842	-0.13501158	0.58910921	1.04396791	0.04777965	-5.70405716	2.30438463	-3.41945845	-9.97241852	8.67109353	-1.26e-06	0.0	19.95418208	-3.43152758	-5.28413065	-48.74635385	1.61783079	-3.65e-06	0.0	-16.71670852	1.03126069	1.84163688
1.05	5.0948713	-0.58255076	-0.25398097	0.58716274	1.04329634	0.04848483	-7.33667763	2.72997168	-3.33715459	-9.12052135	8.96841097	-1.24e-06	0.0	20.09377889	-3.94041238	-6.27234378	-43.47894306	1.27001407	-5e-06	0.0	-17.04670277	1.26291373	1.9794786
1.067	4.9716087	-1.16870233	-0.54010161	0.58506336	1.0416009	0.04934044	-8.5980184	3.37793115	-3.01271775	-8.42062697	9.29393807	-1.15e-06	0.0	20.36079475	-4.7225641	-7.5340983	-37.97284385	0.735138	-6e-06	0.0	-16.90750863	1.78440756	2.44015337
1.083	4.90073673	-1.58203342	-0.79938428	0.58337739	1.03968617	0.04963243	-9.98784057	3.7845654	-2.55162845	-7.66636687	9.66654333	-1.27e-06	0.0	20.29635013	-5.15249595	-8.87407742	-32.07607448	-0.02018354	-6.55e-06	0.0	-16.97271463	2.01839905	2.64919555
1.1	4.74778822	-2.13770004	-1.06179188	0.58208762	1.03725509	0.05012495	-11.3703944	4.33535479	-2.07866492	-6.83401973	9.96020703	-1.05e-06	0.0	20.28476501	-5.57915839	-9.87499629	-26.3119917	-0.72310742	-6.16e-06	0.0	-16.83182789	2.47060672	3.03438725
1.117	4.55088962	-2.61283812	-1.31009374	0.58080629	1.03445887	0.05034696	-12.58222851	4.77426204	-1.48925892	-6.30150685	10.41624418	-1.02e-06	0.0	20.18661436	-5.7143754	-10.26923229	-20.50328305	-1.32420944	-5.47e-06	0.0	-16.72449628	2.84083741	3.11876863
1.133	4.40402516	-3.16975894	-1.79686324	0.57924366	1.03138954	0.05032414	-13.71166782	5.18701507	-0.63193651	-6.04214615	10.96337098	-1.01e-06	0.0	20.03456555	-5.90665273	-10.10368924	-15.09431294	-1.62623379	-4.27e-06	0.0	-16.69774306	3.17440134	3.60950885
1.15	4.47062896	-3.67221216	-2.03025273	0.57844164	1.02848423	0.04983723	-15.13535627	5.55723469	-0.01166542	-5.71931854	11.44515589	-9.4e-07	0.0	19.49631145	-5.93641673	-9.0788599	-9.91226227	-1.73042379	-3.28e-06	0.0	-16.81660932	3.60559834	3.94958808
1.167	4.42759623	-4.01290964	-2.37612899	0.57805991	1.02518792	0.04966417	-16.50385661	5.72646427	0.54759421	-5.33694656	11.89696516	-8.7e-07	0.0	19.13713377	-5.95332512	-7.86216379	-5.6884668	-1.52033716	-2.22e-06	0.0	-16.91726129	3.63678902	3.90046793
1.183	4.54473041	-4.35643762	-2.92020188	0.57751113	1.02230106	0.04926083	-17.78637161	5.76305106	1.24490144	-5.46057986	12.42715561	-7.4e-07	0.0	18.68591279	-6.10404217	-6.84624053	-2.58648025	-1.11941012	-1.47e-06	0.0	-17.03618448	3.75435023	4.53682966
1.2	4.43743329	-4.46861649	-3.19793042	0.57780789	1.01926775	0.0487711	-18.90286964	5.65074693	1.60366504	-5.47413872	12.80821841	-5.3e-07	0.0	18.60789677	-6.02039316	-5.86707486	-0.71913024	-0.75749151	-9.3e-07	0.0	-16.92762085	3.53574234	4.26090381
1.217	4.54259802	-4.58186503	-3.43093047	0.57737196	1.01700148	0.04796352	-19.81367111	5.51431198	1.94775961	-6.24808395	13.29187789	-2.1e-07	0.0	18.71482741	-5.97097345	-5.02627486	-0.61844408	-0.39865666	-7.9e-07	0.0	-17.12699582	3.31474894	4.34772767
1.233	4.65405975	-4.48621055	-3.77189728	0.57770418	1.01518915	0.04693791	-20.63791034	5.097662	2.41194993	-7.21334357	13.70731813	7e-08	0.0	18.8298274	-5.73664857	-4.56054124	-1.60700658	-0.4078639	-9.2e-07	0.0	-17.20572662	2.81775553	4.30234735
1.25	4.58076904	-4.30664137	-4.37083767	0.57916944	1.0137422	0.0453122	-21.08078216	4.46486383	3.04603181	-8.64071116	14.0301722	4.7e-07	0.0	19.10008687	-5.46819187	-4.46447068	-3.46093805	-0.79433449	-1.15e-06	0.0	-16.94744612	2.31334058	4.51843351
1.267	4.43294175	-4.039581	-4.41898816	0.58130035	1.0123906	0.04343923	-21.25867053	3.98209133	3.16357648	-10.45244081	14.25474018	8.8e-07	0.0	19.66182156	-4.99214695	-3.98443616	-6.04082188	-1.55872725	-1.47e-06	0.0	-16.47873405	1.75254446	4.33164535
1.283	4.21653171	-4.15492616	-4.62945431	0.5822382	1.0114154	0.04208538	-20.89569077	3.88654052	3.46957424	-13.07817655	14.27773479	1.34e-06	0.0	20.22531046	-5.0193465	-3.73600365	-8.61138523	-2.66761954	-1.75e-06	0.0	-16.25010215	1.44124887	4.26734261
1.3	4.11433951	-3.98811672	-4.86053317	0.58472658	1.01121007	0.04049343	-20.69523642	3.45252333	3.63006945	-15.6326864	13.79571717	1.96e-06	0.0	20.55648818	-4.78306996	-3.73948	-11.2465547	-3.52934295	-1.91e-06	0.0	-15.89429023	0.76503798	4.16196016
1.317	4.23570126	-3.69158995	-5.04929867	0.58775799	1.01184536	0.03865525	-20.1956638	2.89233347	3.64747955	-19.15508331	12.98056013	2.6e-06	0.0	20.48863083	-4.40334261	-3.91262077	-13.70015821	-4.03695861	-2.07e-06	0.0	-15.69861242	-0.01285053	3.87354659
1.333	4.42817026	-3.41746292	-5.09631247	0.59091451	1.01299173	0.03659329	-19.23726051	2.38951274	3.32260129	-23.53873899	11.59919372	3.31e-06	0.0	20.17585455	-4.00383292	-3.98396059	-15.89972225	-4.13089826	-2.21e-06	0.0	-15.5374022	-0.71559024	3.63736842
1.35	4.87412685	-3.04363379	-5.00905371	0.59424426	1.01491909	0.03399243	-18.00914761	1.70788874	2.46030449	-28.63822123	9.32394901	4.04e-06	0.0	19.34554354	-3.4215233	-4.01784926	-17.70049967	-3.86129069	-2.36e-06	0.0	-15.60576596	-1.44669789	3.28258965
1.367	5.17633521	-2.59821413	-4.7879836	0.59728386	1.016798	0.03065097	-16.01684541	0.81109739	1.01676921	-34.44665201	6.02359285	4.55e-06	0.0	18.43072625	-2.70322464	-4.01682795	-19.02987574	-3.33258993	-2.32e-06	0.0	-15.57798528	-2.13434003	2.76752462
1.383	5.33461107	-2.05479512	-4.63582579	0.59966936	1.01854396	0.0269952	-13.34142344	-0.47921409	-0.76951133	-40.62743922	1.82706627	4.65e-06	0.0	17.43489743	-1.88322211	-4.11401724	-19.88903843	-2.58821372	-2.2e-06	0.0	-15.50438538	-2.82133145	2.38844705
1.4	5.40918008	-1.49060812	-4.4695791	0.60130334	1.02025464	0.02343058	-10.35346576	-1.99206606	-2.57083412	-46.56593796	-2.72797306	3.59e-06	0.0	16.416212	-1.0251771	-4.16265365	-20.4811006	-1.64254239	-2.06e-06	0.0	-15.30547212	-3.489648	1.68656241
1.417	5.63923139	-0.89926	-4.38639156	0.60261905	1.02272051	0.0196914	-7.56248682	-3.67306334	-4.03171558	-51.82584917	-6.64370293	1.59e-06	0.0	14.85113049	-0.08482938	-4.2958024	-20.30562841	-0.78384094	-2.12e-06	0.0	-15.44458136	-4.11397085	1.22883083
1.433	5.802297	-0.23866275	-4.56245041	0.60246236	1.02496092	0.01635421	-4.53794576	-5.33078014	-4.69516444	-56.79113498	-8.75601435	-9e-07	0.0	13.31147879	0.882455	-4.63073537	-19.8854356	0.02128088	-2.06e-06	0.0	-15.54423368	-4.80073988	0.98624964
1.45	5.96161462	0.19571343	-4.71791611	0.60197281	1.02756257	0.01304196	-1.65050648	-6.50776606	-4.87254716	-61.05985888	-8.87901549	-3.41e-06	0.0	11.72700118	1.64811646	-4.83886044	-19.35782438	0.80099326	-2.14e-06	0.0	-15.56785877	-5.1656377	0.65618615
1.467	6.00865016	0.10103834	-4.18525583	0.60241555	1.03084525	0.00953349	0.78561795	-6.795308	-5.46291712	-64.17454932	-7.57952671	-5.49e-06	0.0	10.09022077	1.94587849	-4.2898877	-18.6174691	1.50915271	-1.93e-06	0.0	-15.55512918	-4.81173542	-0.32636972
1.483	6.21901336	0.06699182	-3.93112414	0.60152621	1.03419974	0.00685849	3.19148386	-6.92382534	-5.52725603	-66.82889167	-5.50255604	-6.79e-06	0.0	8.16893792	2.2245225	-3.98808528	-17.50338965	1.99170011	-1.79e-06	0.0	-15.71773809	-4.59947137	-0.94320055
1.5	6.15583325	-0.1434584	-3.41939249	0.60040453	1.03688112	0.00415645	5.70127743	-6.65528033	-5.7207993	-68.65927864	-3.36818413	-7.48e-06	0.0	6.67956594	2.29126853	-3.37040002	-16.6377939	2.54287624	-1.7e-06	0.0	-15.72478256	-4.16522955	-1.7926772
1.517	6.19189914	-0.48491837	-2.75380248	0.59908816	1.03953153	0.00171524	7.91261113	-6.16357961	-6.08984725	-69.60652705	-1.56118613	-7.51e-06	0.0	4.96156432	2.18537555	-2.60012356	-15.49155049	2.97631554	-1.56e-06	0.0	-15.80987481	-3.5161312	-2.63166098
1.533	6.22615544	-0.78975742	-2.19074473	0.59786632	1.04185331	-0.0006097	9.99971442	-5.60092163	-6.2676206	-69.7558465	-0.19915229	-7.35e-06	0.0	3.16184203	2.07874093	-1.96708611	-14.1770203	3.32770481	-1.44e-06	0.0	-15.90278643	-2.96495391	-3.57617653
1.55	6.03892833	-0.88854504	-1.77779471	0.5955069	1.04296618	-0.00250853	12.39372356	-5.20959952	-6.29080499	-69.40098768	0.78706198	-6.55e-06	0.0	1.83186975	2.12566353	-1.53512441	-13.18361882	3.74495767	-1.33e-06	0.0	-15.85686063	-2.69389367	-4.11755393
1.567	6.04843934	-1.28756912	-0.98581623	0.59413804	1.04438247	-0.0045042	14.0731184	-4.55641323	-6.81274259	-67.92632586	1.38808248	-5.88e-06	0.0	0.1689139	1.81492379	-0.71207825	-12.04330698	4.17363314	-1.19e-06	0.0	-15.93557909	-2.01058153	-4.9099088
